<?xml version="1.0" encoding="UTF-8" standalone="no"?>
<svg
   xmlns:dc="http://purl.org/dc/elements/1.1/"
   xmlns:cc="http://creativecommons.org/ns#"
   xmlns:rdf="http://www.w3.org/1999/02/22-rdf-syntax-ns#"
   xmlns:svg="http://www.w3.org/2000/svg"
   xmlns="http://www.w3.org/2000/svg"
   xmlns:sodipodi="http://sodipodi.sourceforge.net/DTD/sodipodi-0.dtd"
   xmlns:inkscape="http://www.inkscape.org/namespaces/inkscape"
   version="1.1"
   x="0px"
   y="0px"
   viewBox="0 0 52.227451 85.950874"
   id="svg2"
   inkscape:version="0.91 r13725"
   sodipodi:docname="noun_1166432_cc.svg"
   width="52.227451"
   height="85.950874">
  <metadata
     id="metadata18">
    <rdf:RDF>
      <cc:Work
         rdf:about="">
        <dc:format>image/svg+xml</dc:format>
        <dc:type
           rdf:resource="http://purl.org/dc/dcmitype/StillImage" />
        <dc:title></dc:title>
      </cc:Work>
    </rdf:RDF>
  </metadata>
  <defs
     id="defs16" />
  <sodipodi:namedview
     pagecolor="#ffffff"
     bordercolor="#666666"
     borderopacity="1"
     objecttolerance="10"
     gridtolerance="10"
     guidetolerance="10"
     inkscape:pageopacity="0"
     inkscape:pageshadow="2"
     inkscape:window-width="3200"
     inkscape:window-height="1751"
     id="namedview14"
     showgrid="false"
     fit-margin-top="0"
     fit-margin-left="0"
     fit-margin-right="0"
     fit-margin-bottom="0"
     inkscape:zoom="1.888"
     inkscape:cx="-214.72383"
     inkscape:cy="30.475416"
     inkscape:window-x="0"
     inkscape:window-y="24"
     inkscape:window-maximized="1"
     inkscape:current-layer="svg2" />
  <g
     transform="translate(-23.886275,-959.38672)"
     id="g4">
    <path
       style="color:#000000;text-indent:0;text-transform:none;direction:ltr;block-progression:tb;baseline-shift:baseline;display:inline;overflow:visible;visibility:visible;fill:#000000;fill-opacity:1;fill-rule:evenodd;stroke:none;marker:none;enable-background:accumulate"
       d="m 59.242747,1013.9862 a 1.0001003,1.0001003 0 0 0 -0.681245,1.6805 c 0,0 4.789712,5.1499 1.937043,13.4817 a 1.0001003,1.0001003 0 1 0 1.892347,0.6477 c 3.164943,-9.2437 -2.34671,-15.4718 -2.34671,-15.4718 a 1.0001003,1.0001003 0 0 0 -0.801435,-0.3381 z"
       visibility="visible"
       display="inline"
       overflow="visible"
       id="path6"
       inkscape:connector-curvature="0" />
    <path
       style="color:#000000;text-indent:0;text-transform:none;direction:ltr;block-progression:tb;baseline-shift:baseline;display:inline;overflow:visible;visibility:visible;fill:#000000;fill-opacity:1;fill-rule:evenodd;stroke:none;marker:none;enable-background:accumulate"
       d="m 64.775998,959.3875 c -3.309932,0.0351 -6.016812,1.24776 -8.069046,2.86758 -3.382826,2.67017 -5.120085,6.31381 -5.566749,7.35003 l -4.627425,2.20513 c -1.993239,-3.71431 -4.591828,-5.62579 -4.591828,-5.62579 a 1.0001003,1.0001003 0 1 0 -1.180205,1.61456 c 0,0 5.329169,3.86961 5.957418,11.54125 -2.985858,0.17985 -5.921021,1.12663 -8.314727,2.87664 -2.674783,1.95557 -4.649123,4.94672 -5.137983,8.83116 a 1.0001003,1.0001003 0 0 0 0,6.2e-4 c -1.079613,8.61752 -0.0318,11.84712 -6.361685,21.58852 a 1.0001003,1.0001003 0 0 0 0,3e-4 c -3.175743,4.8924 -4.175562,12.6536 -1.288995,19.4894 2.886666,6.8357 9.816204,12.6076 22.103209,13.2095 a 1.0001003,1.0001003 0 0 0 0.09779,0 c 12.291906,-0.6019 19.224045,-6.3737 22.112011,-13.2095 2.887966,-6.8358 1.887947,-14.597 -1.287696,-19.4894 a 1.0001003,1.0001003 0 0 0 0,-3e-4 c -6.329887,-9.7414 -5.282072,-12.971 -6.361685,-21.58852 a 1.0001003,1.0001003 0 0 0 0,-6.2e-4 c -0.48886,-3.88444 -2.4632,-6.87559 -5.138084,-8.83116 -2.420803,-1.76991 -5.395662,-2.71896 -8.416418,-2.8832 -0.161987,-2.16612 -0.669246,-4.07244 -1.338691,-5.7136 l 4.593728,-2.18951 c 3.57211,2.06585 8.164738,2.98158 12.564282,2.14139 4.624425,-0.88315 9.030168,-3.79276 11.502168,-9.278 a 1.0001003,1.0001003 0 0 0 -0.36687,-1.24959 c -4.130766,-2.68373 -7.772571,-3.68982 -10.881919,-3.65689 z m 0.0297,1.90141 c 2.497398,-0.0204 5.466457,0.79325 9.018969,2.96413 -2.254317,4.40391 -5.823628,6.61882 -9.677016,7.35472 -3.765495,0.71912 -7.804568,-0.0482 -10.915416,-1.75517 0.638349,-1.3063 2.171925,-4.02112 4.714019,-6.02764 1.786355,-1.40995 4.017574,-2.51285 6.859444,-2.53604 z m -17.054221,20.019 c 2.958961,0 5.909122,0.85741 8.188037,2.52355 2.278816,1.66603 3.910883,4.10699 4.333749,7.46564 0,2.1e-4 0,4.2e-4 0,6.2e-4 1.052215,8.39949 0.167487,12.42328 6.66886,22.42878 0,10e-5 0,2e-4 0,3e-4 2.741778,4.2242 3.728898,11.4529 1.122709,17.6217 -2.602589,6.1603 -8.633501,11.4014 -20.318354,11.9875 -11.679954,-0.586 -17.708465,-5.8268 -20.309955,-11.9872 -2.604989,-6.1688 -1.617769,-13.3978 1.124009,-17.622 0,-10e-5 0,-2e-4 0,-3e-4 6.501373,-10.0055 5.616545,-14.02929 6.66886,-22.42878 0,-2.1e-4 0,-4.2e-4 0,-6.2e-4 0.422766,-3.35865 2.054933,-5.79961 4.333749,-7.46564 2.278915,-1.66613 5.228776,-2.52355 8.187736,-2.52355 z"
       visibility="visible"
       display="inline"
       overflow="visible"
       id="path8"
       inkscape:connector-curvature="0" />
  </g>
</svg>
