<?xml version="1.0" encoding="UTF-8" standalone="no"?>
<svg
   xmlns:dc="http://purl.org/dc/elements/1.1/"
   xmlns:cc="http://creativecommons.org/ns#"
   xmlns:rdf="http://www.w3.org/1999/02/22-rdf-syntax-ns#"
   xmlns:svg="http://www.w3.org/2000/svg"
   xmlns="http://www.w3.org/2000/svg"
   xmlns:sodipodi="http://sodipodi.sourceforge.net/DTD/sodipodi-0.dtd"
   xmlns:inkscape="http://www.inkscape.org/namespaces/inkscape"
   version="1.1"
   x="0px"
   y="0px"
   viewBox="0 0 54.452 94.253998"
   enable-background="new 0 0 100 100"
   xml:space="preserve"
   id="svg2"
   inkscape:version="0.91 r13725"
   sodipodi:docname="noun_868662_cc.svg"
   width="54.452"
   height="94.253998"><metadata
     id="metadata32"><rdf:RDF><cc:Work
         rdf:about=""><dc:format>image/svg+xml</dc:format><dc:type
           rdf:resource="http://purl.org/dc/dcmitype/StillImage" /><dc:title></dc:title></cc:Work></rdf:RDF></metadata><defs
     id="defs30" /><sodipodi:namedview
     pagecolor="#ffffff"
     bordercolor="#666666"
     borderopacity="1"
     objecttolerance="10"
     gridtolerance="10"
     guidetolerance="10"
     inkscape:pageopacity="0"
     inkscape:pageshadow="2"
     inkscape:window-width="3200"
     inkscape:window-height="1751"
     id="namedview28"
     showgrid="false"
     fit-margin-top="0"
     fit-margin-left="0"
     fit-margin-right="0"
     fit-margin-bottom="0"
     inkscape:zoom="1.888"
     inkscape:cx="-101.57343"
     inkscape:cy="-273.01104"
     inkscape:window-x="0"
     inkscape:window-y="24"
     inkscape:window-maximized="1"
     inkscape:current-layer="svg2" /><g
     id="g4"
     transform="translate(-22.774,-2.873)"><path
       d="m 61.018,20.153 c -0.004,0 -0.004,0 -0.004,0 -0.514,0 -1.033,-0.029 -1.557,-0.089 -4.305,-0.491 -8.15,-3.066 -10.291,-6.882 l -0.607,-1.085 0.837,-0.922 c 2.927,-3.216 7.199,-4.874 11.581,-4.373 4.305,0.495 8.154,3.066 10.299,6.878 l 0.613,1.088 -0.844,0.925 c -2.59,2.834 -6.246,4.46 -10.027,4.46 z M 52.895,12.59 c 1.664,2.24 4.183,3.723 6.958,4.04 2.836,0.311 5.571,-0.557 7.694,-2.358 -1.668,-2.262 -4.146,-3.71 -6.965,-4.037 -2.799,-0.322 -5.57,0.559 -7.687,2.355 z"
       id="path6"
       inkscape:connector-curvature="0"
       style="fill:#000000" /></g><g
     id="g8"
     transform="translate(-22.774,-2.873)"><path
       d="m 50,97.127 c -15.014,0 -27.226,-12.391 -27.226,-27.619 0,-9.52 4.902,-18.409 12.857,-23.438 l 0,-6.312 c 0,-7.924 6.445,-14.37 14.369,-14.37 7.924,0 14.369,6.445 14.369,14.37 l 0,6.312 C 72.324,51.099 77.226,59.988 77.226,69.508 77.227,84.736 65.015,97.127 50,97.127 Z m 0,-68.282 c -6.017,0 -10.912,4.896 -10.912,10.913 l 0,8.278 -0.861,0.5 C 30.83,52.841 26.231,60.877 26.231,69.508 26.231,82.83 36.894,93.67 50,93.67 c 13.106,0 23.77,-10.84 23.77,-24.162 0,-8.631 -4.599,-16.667 -11.996,-20.972 l -0.861,-0.5 0,-8.278 C 60.912,33.741 56.018,28.845 50,28.845 Z"
       id="path10"
       inkscape:connector-curvature="0"
       style="fill:#000000" /></g><g
     id="g12"
     transform="translate(-22.774,-2.873)"><path
       d="M 51.729,27.164 48.271,27.073 C 48.274,26.942 48.463,13.877 38.287,5.55 l 2.188,-2.677 c 11.521,9.425 11.271,23.689 11.254,24.291 z"
       id="path14"
       inkscape:connector-curvature="0"
       style="fill:#000000" /></g><g
     id="g16"
     transform="translate(-22.774,-2.873)"><path
       d="M 40.203,23.184 38.38,20.246 c 5.257,-3.263 4.841,-9.45 4.821,-9.712 l 3.444,-0.287 c 0.03,0.346 0.644,8.539 -6.442,12.937 z"
       id="path18"
       inkscape:connector-curvature="0"
       style="fill:#000000" /></g><g
     id="g20"
     transform="translate(-22.774,-2.873)"><path
       d="M 40.787,88.084 C 33.91,84.611 29.635,77.67 29.635,69.969 c 0,-3.213 0.729,-6.287 2.171,-9.139 l 3.086,1.561 c -1.195,2.361 -1.799,4.912 -1.799,7.578 0,6.389 3.545,12.148 9.254,15.029 l -1.56,3.086 z"
       id="path22"
       inkscape:connector-curvature="0"
       style="fill:#000000" /></g></svg>